<svg xmlns="http://www.w3.org/2000/svg" width="64" height="64" viewBox="0 0 64 64">
  <rect x="2" y="2" width="60" height="60" rx="14" fill="#4f46e5" />
  <path
    d="M20 16h24a2 2 0 0 1 2 2v30a2 2 0 0 1-2 2H20a2 2 0 0 1-2-2V18a2 2 0 0 1 2-2Z"
    fill="#fff"
  />
  <rect x="22" y="13" width="3" height="8" rx="1.5" fill="#4f46e5" />
  <rect x="39" y="13" width="3" height="8" rx="1.5" fill="#4f46e5" />
  <rect x="23" y="27" width="18" height="3" rx="1.5" fill="#c7d2fe" />
  <rect x="23" y="34" width="13" height="3" rx="1.5" fill="#c7d2fe" />
  <circle cx="42" cy="42" r="3" fill="#4f46e5" />
</svg>
